<?xml version="1.0" encoding="UTF-8" standalone="no"?><!DOCTYPE svg PUBLIC "-//W3C//DTD SVG 1.1//EN" "http://www.w3.org/Graphics/SVG/1.1/DTD/svg11.dtd"><svg width="100%" height="100%" viewBox="0 0 1548 1549" version="1.1" xmlns="http://www.w3.org/2000/svg" xmlns:xlink="http://www.w3.org/1999/xlink" xml:space="preserve" xmlns:serif="http://www.serif.com/" style="fill-rule:evenodd;clip-rule:evenodd;stroke-linejoin:round;stroke-miterlimit:2;"><path id="moon" d="M1282.24,1296.57c-136.765,133.071 -317.217,206.368 -508.104,206.368c-401.86,0 -728.81,-326.935 -728.81,-728.809c0,-401.874 326.95,-728.81 728.81,-728.81c13.675,0 27.433,0.386 41.149,1.158c-106.851,99.393 -167.217,237.014 -167.217,384.794c-0,290.322 236.186,526.508 526.494,526.508c118.845,-0 232.437,-39.564 324.91,-112.338c-16.584,171.271 -92.639,329.941 -217.232,451.129m250.013,-519.326c-7.816,-3.487 -16.97,-1.888 -23.159,4.026c-90.584,86.6 -209.388,134.298 -334.532,134.298c-267.038,-0 -484.283,-217.232 -484.283,-484.297c-0,-151.806 69.258,-291.962 190.019,-384.518c6.796,-5.197 9.774,-14.02 7.527,-22.277c-2.247,-8.272 -9.264,-14.351 -17.756,-15.412c-31.72,-3.943 -64.006,-5.942 -95.933,-5.942c-425.144,0 -771.007,345.877 -771.007,771.007c0,425.13 345.863,770.993 771.007,770.993c201.915,0 392.83,-77.529 537.536,-218.307c144.417,-140.473 227.198,-328.603 233.099,-529.678c0.248,-8.561 -4.687,-16.419 -12.518,-19.893" style="fill:none;fill-rule:nonzero;stroke:#000;stroke-width:6.25px;"/></svg>