<?xml version="1.0" encoding="UTF-8" standalone="no"?><!DOCTYPE svg PUBLIC "-//W3C//DTD SVG 1.1//EN" "http://www.w3.org/Graphics/SVG/1.1/DTD/svg11.dtd"><svg width="100%" height="100%" viewBox="0 0 1549 1549" version="1.1" xmlns="http://www.w3.org/2000/svg" xmlns:xlink="http://www.w3.org/1999/xlink" xml:space="preserve" xmlns:serif="http://www.serif.com/" style="fill-rule:evenodd;clip-rule:evenodd;stroke-linecap:round;stroke-linejoin:round;stroke-miterlimit:10;"><path id="sun" d="M774.125,1332.48c-308.369,-0 -558.353,-249.984 -558.353,-558.353c0,-308.369 249.984,-558.353 558.353,-558.353c308.369,0 558.353,249.984 558.353,558.353c-0,308.369 -249.984,558.353 -558.353,558.353Zm710.409,-258.248c-133.415,-140.064 -116.809,-218.147 60.591,-300.105c-177.4,-81.958 -194.006,-160.041 -60.591,-300.113c-193.494,-1.965 -236.958,-65.919 -165.229,-245.067c-179.148,71.729 -243.102,28.265 -245.075,-165.229c-140.064,133.415 -218.147,116.809 -300.105,-60.591c-81.958,177.4 -160.041,194.006 -300.105,60.591c-1.973,193.494 -65.927,236.958 -245.075,165.229c71.729,179.148 28.265,243.102 -165.229,245.067c133.415,140.072 116.809,218.155 -60.591,300.113c177.4,81.958 194.006,160.041 60.591,300.105c193.494,1.965 236.958,65.927 165.229,245.075c179.148,-71.729 243.102,-28.265 245.075,165.229c140.064,-133.415 218.147,-116.809 300.105,60.591c81.958,-177.4 160.041,-194.006 300.105,-60.591c1.973,-193.494 65.927,-236.958 245.075,-165.229c-71.729,-179.148 -28.265,-243.11 165.229,-245.075Z" style="fill:none;fill-rule:nonzero;stroke:#000;stroke-width:6.25px;"/></svg>